<svg width="19" height="19" viewBox="0 0 19 19" fill="none" xmlns="http://www.w3.org/2000/svg">
<g clip-path="url(#clip0_72_1305)">
<path d="M11.1799 8.27967C10.8033 7.75231 10.1855 7.40576 9.49239 7.40576C8.79929 7.40576 8.18152 7.75231 7.80484 8.27967C7.56376 8.62622 7.41309 9.04811 7.41309 9.50013C7.41309 10.6453 8.34727 11.5794 9.49239 11.5794C10.6375 11.5794 11.5717 10.6453 11.5717 9.50013C11.5717 9.04811 11.421 8.62622 11.1799 8.27967Z" fill="white"/>
<path d="M12.4909 8.29468C12.6416 8.59603 12.732 9.07818 12.732 9.50007C12.732 11.278 11.2855 12.7396 9.49247 12.7396C7.69945 12.7396 6.25298 11.2931 6.25298 9.50007C6.25298 9.06312 6.34338 8.59603 6.49405 8.29468H4.6709V13.1313C4.6709 13.7641 5.22839 14.3216 5.86122 14.3216H13.1237C13.7565 14.3216 14.314 13.7641 14.314 13.1313V8.29468H12.4909Z" fill="white"/>
<path d="M13.7713 4.94964H12.0234V6.9536H14.0123V5.20578V4.93457L13.7713 4.94964Z" fill="white"/>
<path d="M14.2236 0.00891113H4.7613C2.13957 0.00891113 0 2.14848 0 4.77021V14.2476C0 16.8543 2.13957 18.9938 4.7613 18.9938H14.2387C16.8604 18.9938 19 16.8543 19 14.2325V4.77021C18.9849 2.14848 16.8454 0.00891113 14.2236 0.00891113ZM15.3688 8.28092V13.1326C15.3688 14.3983 14.3894 15.3777 13.1237 15.3777H5.86122C4.59556 15.3777 3.61618 14.3983 3.61618 13.1326V8.28092V5.87013C3.61618 4.60447 4.59556 3.62509 5.86122 3.62509H13.1237C14.3894 3.62509 15.3688 4.60447 15.3688 5.87013V8.28092Z" fill="white"/>
</g>
<defs>
<clipPath id="clip0_72_1305">
<rect width="19" height="19" fill="white"/>
</clipPath>
</defs>
</svg>
