<?xml version="1.0" encoding="utf-8"?><!-- Uploaded to: SVG Repo, www.svgrepo.com, Generator: SVG Repo Mixer Tools -->
<svg width="800px" height="800px" viewBox="0 0 24 24" fill="none" xmlns="http://www.w3.org/2000/svg">
<path fill-rule="evenodd" clip-rule="evenodd" d="M12 18C12 18 19 14.866 19 9C19 5.13401 15.866 2 12 2C8.13401 2 5 5.13401 5 9C5 14.866 12 18 12 18ZM12 12C13.6569 12 15 10.6569 15 9C15 7.34315 13.6569 6 12 6C10.3431 6 9 7.34315 9 9C9 10.6569 10.3431 12 12 12Z" fill="#000000"/>
<path d="M17.6871 16.9331C17.374 16.6619 16.9004 16.6959 16.6292 17.009C16.358 17.3221 16.392 17.7958 16.7052 18.0669C17.1236 18.4293 17.25 18.7558 17.25 19C17.25 19.2442 17.1236 19.5707 16.7052 19.9331C16.2847 20.2971 15.6355 20.634 14.792 20.8775C13.9544 21.1193 12.9904 21.25 12 21.25C11.0096 21.25 10.0456 21.1193 9.20801 20.8775C8.36451 20.634 7.71526 20.2971 7.29484 19.9331C6.8764 19.5707 6.75 19.2442 6.75 19C6.75 18.7558 6.8764 18.4293 7.29484 18.0669C7.60795 17.7958 7.64196 17.3221 7.37079 17.009C7.09963 16.6959 6.62597 16.6619 6.31286 16.9331C5.67808 17.4828 5.25 18.1909 5.25 19C5.25 19.8091 5.67808 20.5172 6.31286 21.0669C6.94566 21.615 7.81126 22.0355 8.79199 22.3187C9.77865 22.6035 10.884 22.75 12 22.75C13.116 22.75 14.2214 22.6035 15.208 22.3187C16.1887 22.0355 17.0543 21.615 17.6871 21.0669C18.3219 20.5172 18.75 19.8091 18.75 19C18.75 18.1909 18.3219 17.4828 17.6871 16.9331Z" fill="#000000"/>
</svg>